# xmcd
#
# Track frame offsets: 
#        150
#        16988
#        31653
#        44593
#        57971
#        75366
#        92495
#        108522
#        125099
#        148830
#        168035
#        190881
#        207554
#        229450
#        251569
#
# Disc length: 3470 seconds
#
# Revision: 9
# Processed by: cddbd v1.5.2PL0 Copyright (c) Steve Scherf et al.
# Submitted via: ExactAudioCopyFreeDBPlugin 1.0
#
DISCID=cb0d8c0f
DTITLE=ORANGE RANGE - ORANGE
DYEAR=2007
DGENRE=JPop
TTITLE0=お願い！セニョリータ
TTITLE1=ロコローション
TTITLE2=DANCE 2　feat.ソイソース
TTITLE3=キリキリマイ -Album Ver.-
TTITLE4=ZUNG ZUNG FUNKY MUSIC
TTITLE5=O-MO-I
TTITLE6=GOD69
TTITLE7=UN ROCK STAR
TTITLE8=ミチシルベ-a road home-
TTITLE9=＊-アスタリスク-
TTITLE10=yumekaze
TTITLE11=ИATURAL POP
TTITLE12=チャンピオーネ
TTITLE13=SP Thanx
TTITLE14=イケナイ太陽　～Short Ver.～
EXTD=qqq YEAR: 2007
EXTT0=
EXTT1=
EXTT2=
EXTT3=
EXTT4=
EXTT5=
EXTT6=
EXTT7=
EXTT8=
EXTT9=
EXTT10=
EXTT11=
EXTT12=
EXTT13=
EXTT14=
PLAYORDER=
